<?xml version="1.0" standalone="no"?><svg xmlns="http://www.w3.org/2000/svg" viewBox="0 0 1440 320"><path fill="#ffffff" fill-opacity="0.8" d="M0,288L34.3,245.3C68.6,203,137,117,206,96C274.3,75,343,117,411,160C480,203,549,245,617,240C685.7,235,754,181,823,181.3C891.4,181,960,235,1029,240C1097.1,245,1166,203,1234,176C1302.9,149,1371,139,1406,133.3L1440,128L1440,320L1405.7,320C1371.4,320,1303,320,1234,320C1165.7,320,1097,320,1029,320C960,320,891,320,823,320C754.3,320,686,320,617,320C548.6,320,480,320,411,320C342.9,320,274,320,206,320C137.1,320,69,320,34,320L0,320Z"></path></svg>